<svg width="88" height="52" viewBox="0 0 88 52" fill="none" xmlns="http://www.w3.org/2000/svg">
<rect width="88" height="52" transform="matrix(1 0 0 -1 0 52)" fill="white"/>
<line x1="34.3448" y1="14.9407" x2="54.6264" y2="35.2223" stroke="black" stroke-width="3"/>
<line x1="33.6576" y1="35.2223" x2="53.9392" y2="14.9407" stroke="black" stroke-width="3"/>
<path d="M0 0V-2H-2V0H0ZM88 0H90V-2H88V0ZM88 52V54H90V52H88ZM0 52H-2V54H0V52ZM0 2H88V-2H0V2ZM86 0V52H90V0H86ZM88 50H0V54H88V50ZM2 52V0H-2V52H2Z" fill="black"/>
</svg>
