<svg width="72" height="36" viewBox="0 0 72 36" fill="none" xmlns="http://www.w3.org/2000/svg">
<path d="M18.9476 0L72 0L53.0525 36.0002L0 36.0002L18.9476 0Z" fill="#181D28"/>
<path d="M33.2652 24.3217C32.8906 24.7275 32.9159 25.3602 33.3217 25.7348C33.7275 26.1094 34.3602 26.0841 34.7348 25.6783L33.2652 24.3217ZM40 18.5L40.7348 19.1783C41.0884 18.7952 41.0884 18.2048 40.7348 17.8217L40 18.5ZM34.7348 11.3217C34.3602 10.9159 33.7275 10.8906 33.3217 11.2652C32.9159 11.6398 32.8906 12.2725 33.2652 12.6783L34.7348 11.3217ZM34.7348 25.6783L40.7348 19.1783L39.2652 17.8217L33.2652 24.3217L34.7348 25.6783ZM40.7348 17.8217L34.7348 11.3217L33.2652 12.6783L39.2652 19.1783L40.7348 17.8217Z" fill="white"/>
</svg>
