<svg width="72" height="36" viewBox="0 0 72 36" fill="none" xmlns="http://www.w3.org/2000/svg">
<path d="M18.9476 0L72 0L53.0525 36.0002L0 36.0002L18.9476 0Z" fill="#E8E8E8"/>
<path d="M38.7348 24.3217C39.1094 24.7275 39.0841 25.3602 38.6783 25.7348C38.2725 26.1094 37.6398 26.0841 37.2652 25.6783L38.7348 24.3217ZM32 18.5L31.2652 19.1783C30.9116 18.7952 30.9116 18.2048 31.2652 17.8217L32 18.5ZM37.2652 11.3217C37.6398 10.9159 38.2725 10.8906 38.6783 11.2652C39.0841 11.6398 39.1094 12.2725 38.7348 12.6783L37.2652 11.3217ZM37.2652 25.6783L31.2652 19.1783L32.7348 17.8217L38.7348 24.3217L37.2652 25.6783ZM31.2652 17.8217L37.2652 11.3217L38.7348 12.6783L32.7348 19.1783L31.2652 17.8217Z" fill="black"/>
</svg>
